<?xml version="1.0" encoding="iso-8859-1"?>
<!-- Generator: Adobe Illustrator 19.0.0, SVG Export Plug-In . SVG Version: 6.00 Build 0)  -->
<svg version="1.1" id="Layer_1" xmlns="http://www.w3.org/2000/svg" xmlns:xlink="http://www.w3.org/1999/xlink" x="0px" y="0px"
	 viewBox="0 0 512.004 512.004" style="enable-background:new 0 0 512.004 512.004;" xml:space="preserve">
<g>
	<path style="fill:#91723C;" d="M283.379,243.377c0,0,1.521-25.776,13.18-37.436c11.659,11.659,13.18,37.436,13.18,37.436"/>
	<path style="fill:#91723C;" d="M185.61,243.377c0,0,1.521-25.776,13.18-37.436c11.659,11.659,13.18,37.436,13.18,37.436"/>
	<path style="fill:#91723C;" d="M231.928,243.377c0,0,1.768-29.965,15.321-43.519c13.554,13.554,15.321,43.519,15.321,43.519"/>
</g>
<path style="fill:#A0824E;" d="M504.4,74.685v18.672h-64.046v180.325c0,13.383-1.683,26.381-4.836,38.78
	c-11.203,43.981-41.021,80.521-80.561,100.757l-58.855,16.617c-4.086,0.324-8.212,0.487-12.389,0.487h-98.395l-17.519-13.738
	l-41.335-32.423c0,8.516-0.892,16.83-2.606,24.84c-11.416,53.724-59.118,94.025-116.249,94.025
	c19.223-14.153,34.512-32.454,45.005-53.177c10.473-20.723,16.151-43.9,16.151-67.766c0-38.314,15.522-72.978,40.625-98.091
	c25.103-25.093,59.777-40.615,98.091-40.615h134.123c13.108,0,23.734-10.626,23.734-23.734V61.431
	c0-21.882,17.74-39.622,39.622-39.622h40.844c10.545,0,20.658,4.189,28.114,11.645l22.88,22.88
	C501.666,61.202,504.4,67.802,504.4,74.685z"/>
<path style="fill:#B29266;" d="M416.641,90.529l0.001,150.493c0,65.092-51.849,118.904-116.931,120.039
	c-0.99,0.017-1.986,0.026-2.989,0.026c-128.922,0-128.922,0-128.922,0v55.499l17.519,13.738h98.395
	c4.177,0,8.304-0.162,12.389-0.487l58.855-16.617c50.693-25.945,85.397-78.686,85.397-139.537v-56.229V94.929L416.641,90.529z"/>
<path style="fill:#91723C;" d="M126.467,361.208V473c0,16.582,13.442,30.023,30.024,30.023h65.757l0,0
	c0-19.119-15.5-34.619-34.619-34.619h-2.308v-63.47l0,0c25.493,0,46.159-20.667,46.159-46.159v-32.823
	c0-9.528-7.724-17.252-17.252-17.252h-35.254C149.974,308.701,126.467,332.21,126.467,361.208z"/>
<path style="fill:#B29266;" d="M123.858,409.003c-11.416,53.724-59.118,94.025-116.249,94.025
	c19.223-14.153,34.512-32.454,45.005-53.177c10.473-20.723,16.151-43.9,16.151-67.766c0-38.314,15.522-72.978,40.625-98.091
	C109.391,283.994,62.398,387.671,123.858,409.003z"/>
<path style="fill:#E5B548;" d="M354.955,361.083v107.321h2.308c19.119,0,34.619,15.5,34.619,34.619l0,0h-65.757
	c-16.582,0-30.024-13.442-30.024-30.023v-71.527l0,0c-13.384,0-24.233-10.849-24.233-24.233v-13.848"/>
<path style="fill:#91723C;" d="M354.955,368.651v99.754h2.308c19.119,0,34.619,15.5,34.619,34.619l0,0h-65.757
	c-16.582,0-30.024-13.442-30.024-30.023v-71.527l0,0c-13.384,0-24.233-10.849-24.233-24.233v-8.589
	c0-22.495,17.904-40.903,40.39-41.528l0,0C335.645,326.473,354.955,345.255,354.955,368.651z"/>
<path d="M440.351,178.987c-4.2,0-7.604,3.405-7.604,7.604v87.089c0,51.979-26.601,99.35-70.187,126.484v-39.081
	c0-4.199-3.404-7.604-7.604-7.604s-7.604,3.405-7.604,7.604v107.321c0,4.199,3.404,7.604,7.604,7.604h2.308
	c12.258,0,22.634,8.206,25.926,19.411h-57.064c-12.362,0-22.419-10.057-22.419-22.421v-71.527c0-4.199-3.404-7.604-7.604-7.604
	c-9.169,0-16.629-7.46-16.629-16.629v-13.848c0-4.199-3.404-7.604-7.604-7.604c-4.2,0-7.604,3.405-7.604,7.604v13.848
	c0,14.935,10.337,27.502,24.233,30.92v14.477c-1.594,0.051-3.192,0.082-4.79,0.082h-90.784v-10.714
	c26.058-3.705,46.159-26.163,46.159-53.228v-30.004c0-4.199-3.405-7.604-7.604-7.604s-7.604,3.405-7.604,7.604v30.004
	c0,21.26-17.296,38.555-38.555,38.555c-4.199,0-7.604,3.405-7.604,7.604v63.47c0,4.199,3.405,7.604,7.604,7.604h2.308
	c12.257,0,22.634,8.206,25.926,19.411H156.49c-12.362,0-22.42-10.057-22.42-22.421V372.623c0-4.199-3.405-7.604-7.604-7.604
	c-4.199,0-7.604,3.405-7.604,7.604v11.54c0,53.402-37.823,98.138-88.084,108.83c11.508-11.655,21.221-25.098,28.619-39.714
	c4.343-8.591,7.917-17.632,10.621-26.87c1.18-4.03-1.13-8.254-5.162-9.434c-4.026-1.18-8.254,1.13-9.434,5.162
	c-2.444,8.348-5.674,16.518-9.597,24.279c-10.046,19.85-24.821,37.308-42.728,50.485c-2.646,1.948-3.742,5.374-2.718,8.496
	s3.939,5.233,7.225,5.233c48.001,0,89.84-26.883,111.257-66.381V473c0,20.748,16.88,37.628,37.628,37.628h65.757
	c4.199,0,7.604-3.405,7.604-7.604c0-21.489-16.137-39.28-36.928-41.893v-23.204h90.784c1.598,0,3.195-0.031,4.79-0.076v35.15
	c0,20.748,16.88,37.628,37.627,37.628h65.757c4.2,0,7.604-3.405,7.604-7.604c0-21.489-16.136-39.28-36.928-41.893v-43.351
	c52.791-28.903,85.395-83.681,85.395-144.1v-87.09C447.955,182.392,444.55,178.987,440.351,178.987z"/>
<path d="M502.173,50.955L479.298,28.08c-8.946-8.946-20.841-13.873-33.491-13.873h-40.849c-2.803,0-5.546,0.26-8.216,0.73
	l-2.723-8.323c-1.305-3.991-5.598-6.167-9.591-4.861c-3.993,1.306-6.168,5.601-4.862,9.591l2.821,8.619
	c-3.526,1.927-6.775,4.298-9.684,7.026l-5.878-5.878c-2.971-2.97-7.784-2.97-10.754,0c-2.97,2.97-2.97,7.784,0,10.753l7.274,7.274
	c-2.424,4.509-4.133,9.454-4.984,14.685h-8.065c-4.2,0-7.604,3.405-7.604,7.604s3.404,7.604,7.604,7.604h7.445v16.436h-7.445
	c-4.2,0-7.604,3.405-7.604,7.604c0,4.199,3.404,7.604,7.604,7.604h7.445v16.435h-7.445c-4.2,0-7.604,3.405-7.604,7.604
	s3.404,7.604,7.604,7.604h7.445v16.436h-7.445c-4.2,0-7.604,3.405-7.604,7.604s3.404,7.604,7.604,7.604h7.445v16.435h-7.445
	c-4.2,0-7.604,3.405-7.604,7.604s3.404,7.604,7.604,7.604h7.445v16.435h-7.445c-4.2,0-7.604,3.405-7.604,7.604
	c0,4.199,3.404,7.604,7.604,7.604h5.532c-2.086,3.883-5.719,6.803-10.067,7.964l-4.54-8.136c-2.046-3.667-6.679-4.983-10.345-2.935
	c-3.667,2.046-4.981,6.678-2.936,10.345l0.719,1.288h-12.128c-0.362-2.441-0.876-5.346-1.601-8.465
	c-2.766-11.892-7.137-20.89-12.991-26.745c-2.971-2.97-7.784-2.97-10.754,0c-5.854,5.855-10.226,14.853-12.991,26.745
	c-0.725,3.118-1.239,6.022-1.601,8.465h-7.193c-1.48-10.549-5.635-30.158-16.77-41.292c-2.97-2.97-7.784-2.97-10.753,0
	c-11.134,11.134-15.289,30.743-16.769,41.292h-6.344c-0.362-2.441-0.876-5.346-1.601-8.465c-2.766-11.892-7.137-20.89-12.992-26.745
	c-2.97-2.97-7.784-2.97-10.753,0c-5.855,5.855-10.227,14.853-12.992,26.745c-1.037,4.462-1.642,8.481-1.986,11.332
	c-2.743,0.55-5.463,1.184-8.161,1.888l-4.96-8.891c-2.046-3.667-6.677-4.981-10.345-2.936c-3.667,2.046-4.982,6.677-2.936,10.345
	l3.456,6.196c-6.889,2.614-13.575,5.745-20.002,9.387l-6.922-6.922c-2.97-2.97-7.784-2.97-10.753,0c-2.97,2.97-2.97,7.784,0,10.753
	l4.566,4.566c-5.028,3.608-9.854,7.556-14.453,11.832l-5.778-2.775c-3.786-1.82-8.329-0.223-10.147,3.562
	c-1.818,3.786-0.223,8.328,3.562,10.147l1.225,0.588c-23.046,26.583-35.625,60.18-35.625,95.704c0,4.732-0.238,9.513-0.71,14.212
	c-0.419,4.179,2.63,7.905,6.809,8.324c0.258,0.025,0.513,0.039,0.766,0.039c3.859,0,7.164-2.926,7.557-6.847
	c0.521-5.2,0.785-10.492,0.785-15.728c0-35.017,13.635-67.943,38.392-92.71c24.771-24.758,57.697-38.395,92.713-38.395h134.115
	c0.007,0,0.015,0.001,0.022,0.001c0.015,0,0.03-0.003,0.045-0.003c17.255-0.028,31.285-14.072,31.287-31.334
	c0-0.001,0-0.001,0-0.002c0,0,0,0,0-0.001v-0.001V61.428c0-17.651,14.361-32.013,32.013-32.013h40.849
	c8.589,0,16.664,3.345,22.737,9.419l22.876,22.875c3.465,3.464,5.373,8.071,5.373,12.972v11.073h-69.595
	c-7.465,0-13.539-6.073-13.539-13.539V61.32c0-4.199-3.404-7.604-7.604-7.604c-4.2,0-7.604,3.405-7.604,7.604v10.897
	c0,15.851,12.896,28.747,28.747,28.747h5.549v58.255c0,4.199,3.404,7.604,7.604,7.604c4.2,0,7.604-3.405,7.604-7.604v-58.255H504.4
	c4.2,0,7.604-3.405,7.604-7.604V74.681C512.001,65.718,508.511,57.292,502.173,50.955z M296.552,219.698
	c2.273,5.162,3.724,11.123,4.587,16.076h-9.172C292.823,230.823,294.271,224.863,296.552,219.698z M247.25,212.997
	c3.587,7.098,5.684,15.953,6.782,22.775h-13.563C241.567,228.948,243.664,220.095,247.25,212.997z M198.785,219.698
	c2.282,5.183,3.735,11.172,4.597,16.137c-3.115,0.085-6.212,0.272-9.29,0.55C194.933,231.32,196.409,225.075,198.785,219.698z"/>
<path d="M444.34,46.276c1.756,2.567,4.933,3.886,7.988,3.195c2.98-0.674,5.292-3.106,5.824-6.116
	c0.563-3.187-1.047-6.485-3.902-8.003c-2.817-1.5-6.4-1.054-8.745,1.119C442.79,38.987,442.313,43.19,444.34,46.276z"/>
<g>
</g>
<g>
</g>
<g>
</g>
<g>
</g>
<g>
</g>
<g>
</g>
<g>
</g>
<g>
</g>
<g>
</g>
<g>
</g>
<g>
</g>
<g>
</g>
<g>
</g>
<g>
</g>
<g>
</g>
</svg>
