<?xml version="1.0" encoding="iso-8859-1"?>
<!-- Generator: Adobe Illustrator 19.0.0, SVG Export Plug-In . SVG Version: 6.00 Build 0)  -->
<svg version="1.1" id="Layer_1" xmlns="http://www.w3.org/2000/svg" xmlns:xlink="http://www.w3.org/1999/xlink" x="0px" y="0px"
	 viewBox="0 0 512 512" style="enable-background:new 0 0 512 512;" xml:space="preserve">
<path style="fill:#FFDB80;" d="M512,256h-1.113c0.614,0,1.113,0.499,1.113,1.113v121.322C512,452.201,452.201,512,378.435,512
	H233.739c-73.766,0-133.565-59.799-133.565-133.565V256v-55.652H33.391C14.949,200.348,0,185.399,0,166.957l0,0
	c0-18.441,14.949-33.391,33.391-33.391h66.783v11.13c0-53.848,38.24-98.763,89.043-109.076v-2.228
	C189.217,14.95,204.167,0,222.609,0h11.13v35.62c50.804,10.313,89.043,55.228,89.043,109.076V256h11.13
	c49.178,0,89.043-39.866,89.043-89.043l0,0l0,0C472.134,166.957,512,206.822,512,256L512,256z"/>
<path style="fill:#FFEB99;" d="M189.217,356.174V35.62v-2.228C189.217,14.949,204.167,0,222.609,0h11.13v35.62
	c50.804,10.313,89.043,55.228,89.043,109.076V256h11.13c49.178,0,89.043-39.866,89.043-89.043l0,0l0,0
	C472.134,166.957,512,206.822,512,256l0,0h-1.113c0.614,0,1.113,0.499,1.113,1.113v121.322c0,0.156,0,0.312-0.001,0.469
	c-0.083,24.419-20.184,44.053-44.604,44.053H256C219.117,422.957,189.217,393.057,189.217,356.174z"/>
<path style="fill:#FFC865;" d="M189.217,322.783h122.435c36.883,0,66.783,29.9,66.783,66.783v33.391H256
	c-36.883,0-66.783-29.9-66.783-66.783V322.783z"/>
<path style="fill:#967A56;" d="M200.348,122.435c0,6.147-4.983,11.13-11.13,11.13h-2.226c-6.147,0-11.13-4.983-11.13-11.13
	c0-6.147,4.983-11.13,11.13-11.13h2.226C195.365,111.304,200.348,116.287,200.348,122.435z"/>
<path style="fill:#FF9B57;" d="M100.174,200.348H33.391C14.949,200.348,0,185.399,0,166.957l0,0
	c0-18.442,14.949-33.391,33.391-33.391h66.783V200.348z"/>
<path style="fill:#D15D39;" d="M0,166.957h100.174v33.391H33.391C14.949,200.348,0,185.399,0,166.957z"/>
<path style="fill:#D19742;" d="M377.501,378.435c0.611,3.62,0.934,7.337,0.934,11.13v33.391H256
	c-36.883,0-66.783-29.9-66.783-66.783v-33.391h0.941c5.301,31.583,32.752,55.652,65.842,55.652h59.362h62.131H377.501z"/>
<g>
</g>
<g>
</g>
<g>
</g>
<g>
</g>
<g>
</g>
<g>
</g>
<g>
</g>
<g>
</g>
<g>
</g>
<g>
</g>
<g>
</g>
<g>
</g>
<g>
</g>
<g>
</g>
<g>
</g>
</svg>
