<?xml version="1.0" encoding="iso-8859-1"?>
<!-- Generator: Adobe Illustrator 19.0.0, SVG Export Plug-In . SVG Version: 6.00 Build 0)  -->
<svg version="1.1" id="Layer_1" xmlns="http://www.w3.org/2000/svg" xmlns:xlink="http://www.w3.org/1999/xlink" x="0px" y="0px"
	 viewBox="0 0 512 512" style="enable-background:new 0 0 512 512;" xml:space="preserve">
<polyline style="fill:#57565C;" points="12.821,188.082 12.821,135.837 46.926,135.837 36.477,188.082 "/>
<path style="fill:#FFDA44;" d="M36.477,188.082C78.085,237.798,160.768,271.673,256,271.673c81.189,0,153.255-24.618,198.531-62.694
	h49.089c0.366,3.459,0.543,6.938,0.543,10.449c0,86.559-111.104,156.735-248.163,156.735S7.837,305.988,7.837,219.429
	c0-10.731,1.714-21.222,4.984-31.347H36.477z"/>
<path style="fill:#EEBF00;" d="M504.163,219.429c0,86.559-111.104,156.735-248.163,156.735S7.837,305.988,7.837,219.429
	c0-10.721,1.714-21.201,4.974-31.316C35.819,259.636,135.952,313.469,256,313.469c108.053,0,199.973-43.614,234.036-104.49h13.584
	C503.986,212.438,504.163,215.918,504.163,219.429z"/>
<polygon style="fill:#57565C;" points="504.163,177.633 475.429,177.633 454.531,208.98 504.163,208.98 "/>
<path d="M471.234,169.796l-22.597,33.895c-21.769,18.081-50.202,33.095-82.312,43.455c-34.322,11.075-71.441,16.69-110.326,16.69
	c-88.298,0-168.691-29.812-211.082-77.999L56.485,128H4.983v58.93C1.688,197.555,0,208.479,0,219.429
	c0,44.65,27.11,86.362,76.337,117.453C124.445,367.266,188.25,384,256,384s131.555-16.734,179.663-47.119
	C484.89,305.79,512,264.078,512,219.429v-49.633H471.234z M479.623,185.469h16.704v15.673h-27.153L479.623,185.469z M37.368,143.673
	l-7.314,36.571h-9.396v-36.571H37.368z M427.294,323.63c-45.636,28.823-106.47,44.697-171.294,44.697S130.342,352.453,84.706,323.63
	c-44.516-28.117-69.032-65.123-69.032-104.201c0-7.889,1.016-15.774,3.025-23.51h14.174C78.128,247.562,163.161,279.51,256,279.51
	c79.388,0,152.542-22.827,201.323-62.694h18.448c-38.341,53.601-124.274,88.816-219.77,88.816
	c-96.199,0-182.974-35.587-221.071-90.663l-12.89,8.916c40.937,59.18,132.771,97.42,233.961,97.42
	c53.461,0,104.641-10.416,148.007-30.118c41.17-18.706,72.354-44.357,90.523-74.372h1.797v2.612
	C496.327,258.507,471.81,295.513,427.294,323.63z"/>
<g>
</g>
<g>
</g>
<g>
</g>
<g>
</g>
<g>
</g>
<g>
</g>
<g>
</g>
<g>
</g>
<g>
</g>
<g>
</g>
<g>
</g>
<g>
</g>
<g>
</g>
<g>
</g>
<g>
</g>
</svg>
