<?xml version="1.0" encoding="iso-8859-1"?>
<!-- Generator: Adobe Illustrator 19.0.0, SVG Export Plug-In . SVG Version: 6.00 Build 0)  -->
<svg version="1.1" id="Layer_1" xmlns="http://www.w3.org/2000/svg" xmlns:xlink="http://www.w3.org/1999/xlink" x="0px" y="0px"
	 viewBox="0 0 512 512" style="enable-background:new 0 0 512 512;" xml:space="preserve">
<g>
	<path style="fill:#FFDA44;" d="M279.51,255.999c0-84.208-47.569-154.305-110.459-169.392
		c-2.782-13.724-13.085-23.915-25.377-23.915s-22.596,10.191-25.377,23.915C55.406,101.694,7.837,171.791,7.837,255.999
		s47.569,154.304,110.459,169.392c2.782,13.724,13.085,23.915,25.377,23.915c12.292,0,22.596-10.191,25.377-23.915
		C231.941,410.304,279.51,340.208,279.51,255.999z"/>
	<path style="fill:#FFDA44;" d="M159.454,69.069c-3.422-3.121-7.504-5.251-11.953-6.035c0.249,0.876,0.468,1.767,0.652,2.676
		C151.979,66.628,155.748,67.753,159.454,69.069z"/>
</g>
<path style="fill:#EEBF00;" d="M216.84,110.737c25.744,31.371,41.772,75.49,41.772,124.365c0,84.208-47.569,154.304-110.459,169.392
	c-2.782,13.724-13.085,23.915-25.377,23.915c-1.301,0-2.578-0.121-3.827-0.342c3.505,12.352,13.247,21.24,24.725,21.24
	c12.292,0,22.596-10.191,25.377-23.915c62.89-15.087,110.459-85.183,110.459-169.392C279.51,194.978,254.527,141.375,216.84,110.737
	z"/>
<path id="SVGCleanerId_0" style="fill:#FFDA44;" d="M232.49,255.999c0,84.208,47.574,154.3,110.456,169.388
	c2.79,13.73,13.093,23.918,25.381,23.918c12.288,0,22.591-10.188,25.381-23.918c62.882-15.088,110.456-85.18,110.456-169.388"/>
<g>
	<path id="SVGCleanerId_0_1_" style="fill:#FFDA44;" d="M232.49,255.999c0,84.208,47.574,154.3,110.456,169.388
		c2.79,13.73,13.093,23.918,25.381,23.918c12.288,0,22.591-10.188,25.381-23.918c62.882-15.088,110.456-85.18,110.456-169.388"/>
</g>
<path style="fill:#EEBF00;" d="M482.27,255.999c-7.114,74.697-51.861,134.67-109.46,148.49c-2.79,13.73-13.093,23.918-25.381,23.918
	c-1.301,0-2.579-0.121-3.829-0.342c3.512,12.356,13.252,21.24,24.726,21.24c12.288,0,22.591-10.188,25.381-23.918
	c62.882-15.088,110.456-85.18,110.456-169.388H482.27z"/>
<ellipse style="fill:#FFF5CC;" cx="368.327" cy="255.999" rx="135.837" ry="67.918"/>
<rect x="94.041" y="316.081" width="15.673" height="15.673"/>
<rect x="114.939" y="347.428" width="15.673" height="15.673"/>
<rect x="73.143" y="347.428" width="15.673" height="15.673"/>
<path d="M167.224,417.767l-4.856,1.166l-0.994,4.894c-2.112,10.386-9.389,17.641-17.701,17.641s-15.59-7.255-17.701-17.641
	l-0.994-4.895l-4.857-1.165C59.6,403.245,15.673,335.212,15.673,255.999S59.6,108.753,120.121,94.232l4.857-1.165l0.994-4.895
	c2.112-10.386,9.389-17.641,17.701-17.641s15.59,7.255,17.701,17.641l0.994,4.895l4.857,1.165
	c41.378,9.929,76.327,45.49,93.489,95.125l14.813-5.121c-18.296-52.918-55.486-91.456-100.07-104.05
	c-4.911-15.137-17.421-25.328-31.784-25.328c-14.363,0-26.873,10.191-31.784,25.328C46.781,98.577,0,171.593,0,255.999
	s46.781,157.422,111.89,175.815c4.911,15.137,17.421,25.328,31.784,25.328c14.362,0,26.872-10.192,31.783-25.327
	c28.701-8.087,54.312-26.747,74.308-54.205l-12.669-9.226C218.266,394.238,194.105,411.315,167.224,417.767z"/>
<path d="M89.623,125.684c-11.538,8.468-21.804,19.452-30.513,32.648c-12.259,18.574-20.904,41.051-24.997,65.001l15.449,2.64
	c3.73-21.827,11.557-42.232,22.629-59.007c7.684-11.642,16.668-21.28,26.705-28.646L89.623,125.684z"/>
<path d="M368.327,180.244c-80.565,0-143.673,33.276-143.673,75.755c0,84.407,46.781,157.422,111.89,175.815
	c4.911,15.137,17.421,25.328,31.784,25.328c14.363,0,26.873-10.191,31.784-25.328C465.219,413.422,512,340.406,512,255.999
	C512,213.52,448.89,180.244,368.327,180.244z M241.472,263.836h107.935L305.243,308C271.461,298.768,246.92,282.502,241.472,263.836
	z M368.327,267.083l45.007,45.007c-14.077,2.57-29.262,3.992-45.007,3.992s-30.93-1.421-45.007-3.992L368.327,267.083z M431.41,308
	l-44.164-44.164h107.935C489.733,282.502,465.192,298.768,431.41,308z M495.181,248.163H387.246l44.164-44.164
	C465.192,213.231,489.733,229.497,495.181,248.163z M413.333,199.909l-45.007,45.007l-45.007-45.007
	c14.077-2.57,29.262-3.992,45.007-3.992S399.257,197.339,413.333,199.909z M305.242,203.999l44.164,44.164H241.472
	C246.92,229.497,271.461,213.231,305.242,203.999z M391.879,417.767l-4.857,1.165l-0.994,4.894
	c-2.112,10.387-9.389,17.642-17.701,17.642s-15.59-7.255-17.701-17.642l-0.994-4.894l-4.857-1.165
	c-50.462-12.108-89.381-61.42-100.926-123.393c24.628,22.526,70.655,37.38,124.479,37.38s99.849-14.854,124.478-37.38
	C481.259,356.347,442.341,405.659,391.879,417.767z"/>
<g>
</g>
<g>
</g>
<g>
</g>
<g>
</g>
<g>
</g>
<g>
</g>
<g>
</g>
<g>
</g>
<g>
</g>
<g>
</g>
<g>
</g>
<g>
</g>
<g>
</g>
<g>
</g>
<g>
</g>
</svg>
