<?xml version="1.0" encoding="iso-8859-1"?>
<!-- Generator: Adobe Illustrator 19.0.0, SVG Export Plug-In . SVG Version: 6.00 Build 0)  -->
<svg version="1.1" id="Layer_1" xmlns="http://www.w3.org/2000/svg" xmlns:xlink="http://www.w3.org/1999/xlink" x="0px" y="0px"
	 viewBox="0 0 512.001 512.001" style="enable-background:new 0 0 512.001 512.001;" xml:space="preserve">
<path style="fill:#77BC1F;" d="M244.769,32.375c0,0-20.307-1.831-37.673,5.654c-8.125-17.077-24.6-29.087-24.6-29.087
	s-16.478,12.008-24.603,29.087c-17.37-7.486-37.674-5.654-37.674-5.654s-7.886,35.039,9.313,54.653
	c17.197,19.615,52.963,16.377,52.963,16.377s35.769,3.239,52.965-16.377C252.656,67.411,244.769,32.375,244.769,32.375z"/>
<path style="opacity:0.3;fill:#218649;enable-background:new    ;" d="M182.496,8.942c0,0-16.478,12.008-24.603,29.087
	c-17.37-7.486-37.674-5.654-37.674-5.654s-7.886,35.039,9.313,54.653c17.197,19.615,52.963,16.377,52.963,16.377L182.496,8.942z"/>
<path style="fill:#FF5959;" d="M182.493,422.833c81.59,0,147.733-146.042,147.733-214.19
	c0.002-68.149-66.143-114.601-147.733-114.601c-81.592,0-147.735,46.452-147.735,114.6
	C34.756,276.791,100.901,422.833,182.493,422.833z"/>
<path style="opacity:0.3;fill:#222222;enable-background:new    ;" d="M41.882,255.531
	c19.161,72.484,74.867,167.302,140.611,167.302c65.743,0,121.449-94.82,140.611-167.302H41.882z"/>
<g>
	<path style="fill:#FEDD3D;" d="M173.903,127.811c-0.001-4.748,3.847-8.595,8.593-8.595c4.749,0.001,8.599,3.848,8.597,8.597
		c0.002,4.748-3.847,15.426-8.597,15.426C177.748,143.238,173.9,132.561,173.903,127.811z"/>
	<path style="fill:#FEDD3D;" d="M173.901,233.682c0-4.748,3.848-8.598,8.597-8.598s8.597,3.849,8.597,8.598
		c0,4.747-3.849,15.428-8.597,15.426C177.75,249.107,173.9,238.429,173.901,233.682z"/>
	<path style="fill:#FEDD3D;" d="M173.901,367.183c0-4.749,3.847-8.597,8.597-8.597c4.744,0,8.597,3.848,8.597,8.597
		c0,4.75-3.849,15.426-8.597,15.426C177.75,382.61,173.901,371.933,173.901,367.183z"/>
	<path style="fill:#FEDD3D;" d="M158.551,180.016c-0.001-4.748-3.849-8.595-8.599-8.598c-4.747,0-8.597,3.853-8.597,8.599
		c0,4.748,3.851,15.423,8.597,15.423C154.701,195.44,158.551,184.765,158.551,180.016z"/>
	<path style="fill:#FEDD3D;" d="M127.011,134.04c0-4.745-3.848-8.595-8.597-8.594c-4.747-0.001-8.597,3.849-8.597,8.593
		c0,4.75,3.848,15.429,8.597,15.428C123.163,149.468,127.011,138.791,127.011,134.04z"/>
	<path style="fill:#FEDD3D;" d="M118.414,233.682c-0.001-4.747-3.849-8.594-8.597-8.595c-4.75,0-8.599,3.849-8.599,8.595
		c0.002,4.748,3.849,15.423,8.599,15.423C114.564,249.105,118.415,238.429,118.414,233.682z"/>
	<path style="fill:#FEDD3D;" d="M134.353,339.393c-0.002-4.747-3.849-8.597-8.598-8.598c-4.747,0-8.597,3.849-8.598,8.598
		c0.002,4.75,3.849,15.423,8.597,15.423C130.503,354.816,134.351,344.14,134.353,339.393z"/>
	<path style="fill:#FEDD3D;" d="M90.918,180.014c0.001-4.748-3.849-8.594-8.597-8.597c-4.747,0-8.597,3.849-8.597,8.597
		c0,4.75,3.849,15.426,8.597,15.426C87.071,195.44,90.919,184.765,90.918,180.014z"/>
	<path style="fill:#FEDD3D;" d="M158.55,288.227c0.001-4.748-3.848-8.595-8.598-8.597c-4.744,0-8.597,3.849-8.597,8.597
		c0,4.75,3.849,15.426,8.595,15.428C154.702,303.657,158.55,292.977,158.55,288.227z"/>
	<path style="fill:#FEDD3D;" d="M90.918,288.227c0.001-4.748-3.849-8.597-8.597-8.595c-4.748,0-8.597,3.849-8.597,8.595
		c0.001,4.75,3.849,15.428,8.597,15.429C87.068,303.657,90.919,292.979,90.918,288.227z"/>
	<path style="fill:#FEDD3D;" d="M206.444,180.016c0-4.749,3.85-8.598,8.598-8.595c4.745-0.001,8.598,3.847,8.598,8.595
		s-3.85,15.424-8.598,15.424C210.293,195.44,206.444,184.765,206.444,180.016z"/>
	<path style="fill:#FEDD3D;" d="M237.983,134.042c0.001-4.747,3.85-8.595,8.597-8.597c4.748,0.001,8.598,3.85,8.598,8.597
		c-0.001,4.748-3.848,15.426-8.598,15.426C241.833,149.468,237.983,138.792,237.983,134.042z"/>
	<path style="fill:#FEDD3D;" d="M246.58,233.682c0-4.747,3.851-8.594,8.597-8.598c4.75,0.004,8.598,3.85,8.598,8.598
		c0,4.747-3.848,15.423-8.598,15.423C250.43,249.105,246.58,238.428,246.58,233.682z"/>
	<path style="fill:#FEDD3D;" d="M230.642,339.393c0.002-4.747,3.85-8.597,8.599-8.599c4.749,0.001,8.599,3.853,8.597,8.599
		c0,4.749-3.848,15.426-8.597,15.423C234.492,354.816,230.644,344.141,230.642,339.393z"/>
	<path style="fill:#FEDD3D;" d="M274.074,180.014c0-4.748,3.85-8.595,8.599-8.595c4.748,0,8.597,3.848,8.595,8.595
		c0.001,4.75-3.85,15.426-8.595,15.426C277.927,195.44,274.075,184.765,274.074,180.014z"/>
	<path style="fill:#FEDD3D;" d="M206.444,288.23c0-4.749,3.85-8.599,8.598-8.597c4.745-0.001,8.598,3.847,8.598,8.597
		c0.001,4.748-3.853,15.427-8.598,15.427C210.293,303.655,206.444,292.977,206.444,288.23z"/>
	<path style="fill:#FEDD3D;" d="M274.074,288.227c0-4.748,3.85-8.595,8.598-8.594c4.748-0.002,8.598,3.847,8.597,8.594
		c0.001,4.75-3.848,15.428-8.595,15.428C277.924,303.657,274.074,292.977,274.074,288.227z"/>
</g>
<path style="opacity:0.3;fill:#222222;enable-background:new    ;" d="M325.26,177.437c-9.557-1.926-19.112-2.923-28.546-2.923
	c-33.176,0-62.739,12.027-85.493,34.782c-27.487,27.485-54.887,80.991-68.181,133.141c-5.834,22.882-8.734,44.214-8.773,63.597
	c15.116,10.529,31.339,16.799,48.228,16.799c81.59,0,147.733-146.042,147.733-214.19
	C330.228,197.639,328.496,187.206,325.26,177.437z"/>
<path style="fill:#77BC1F;" d="M122.482,314.986c0,0-18.862,11.77-29.036,29.701c-18.302-9.5-40.527-9.097-40.527-9.097
	s-6.422,21.281-2.249,41.475c-20.026,4.919-36.471,19.875-36.471,19.875s16.197,35.648,44.056,41.387
	c27.856,5.735,56.82-20.613,56.82-20.613s33.226-20.719,35.269-49.086C152.389,340.262,122.482,314.986,122.482,314.986z"/>
<path style="opacity:0.3;fill:#218649;enable-background:new    ;" d="M52.919,335.59c0,0-6.422,21.281-2.249,41.475
	c-20.026,4.919-36.471,19.875-36.471,19.875s16.197,35.648,44.056,41.387c27.856,5.735,56.82-20.613,56.82-20.613L52.919,335.59z"/>
<path style="fill:#77BC1F;" d="M497.802,246.601c0,0-13.063-15.656-30.635-22.642c6.331-17.82,3.171-37.964,3.171-37.964
	s-20.142-3.159-37.963,3.171c-6.989-17.575-22.643-30.637-22.643-30.637s-30.352,19.199-32.061,45.229
	c-1.709,26.03,25.871,49.032,25.871,49.032s23.003,27.583,49.032,25.872C478.605,276.951,497.802,246.601,497.802,246.601z"/>
<path style="opacity:0.3;fill:#218649;enable-background:new    ;" d="M470.337,185.995c0,0-20.142-3.159-37.963,3.171
	c-6.989-17.575-22.643-30.637-22.643-30.637s-30.352,19.199-32.061,45.229s25.871,49.032,25.871,49.032L470.337,185.995z"/>
<path style="fill:#FF5959;" d="M177.67,478.661c57.694,57.693,207.733,1.197,255.92-46.991
	c48.19-48.188,34.263-127.807-23.43-185.499c-57.694-57.694-137.311-71.617-185.498-23.43
	C176.473,270.927,119.978,420.966,177.67,478.661z"/>
<path style="opacity:0.3;fill:#222222;enable-background:new    ;" d="M196.545,260.931
	c-37.706,64.804-65.362,171.241-18.874,217.729s152.926,18.83,217.729-18.874L196.545,260.931z"/>
<g>
	<path style="fill:#FEDD3D;" d="M380.21,263.971c3.355-3.357,8.798-3.357,12.155-0.001c3.355,3.359,3.358,8.802,0,12.157
		c-3.357,3.359-13.63,8.188-16.987,4.83C372.019,277.602,376.849,267.331,380.21,263.971z"/>
	<path style="fill:#FEDD3D;" d="M305.347,338.834c3.357-3.357,8.801-3.357,12.156,0c3.358,3.357,3.358,8.8,0.001,12.157
		c-3.357,3.357-13.632,8.187-16.988,4.83C297.161,352.463,301.987,342.19,305.347,338.834z"/>
	<path style="fill:#FEDD3D;" d="M210.946,433.234c3.358-3.358,8.8-3.358,12.158-0.002c3.355,3.357,3.357,8.802,0,12.16
		c-3.359,3.357-13.632,8.185-16.988,4.829C202.758,446.864,207.588,436.593,210.946,433.234z"/>
	<path style="fill:#FEDD3D;" d="M332.439,290.031c3.357-3.358,3.357-8.8,0-12.16c-3.355-3.357-8.803-3.357-12.158,0
		c-3.358,3.358-8.183,13.632-4.829,16.986C318.811,298.217,329.082,293.389,332.439,290.031z"/>
	<path style="fill:#FEDD3D;" d="M342.647,235.221c3.355-3.355,3.354-8.799-0.001-12.156c-3.357-3.358-8.801-3.358-12.157-0.002
		c-3.358,3.359-8.188,13.632-4.829,16.988C329.016,243.407,339.288,238.578,342.647,235.221z"/>
	<path style="fill:#FEDD3D;" d="M266.112,299.598c3.355-3.355,3.355-8.799,0-12.156c-3.359-3.358-8.803-3.358-12.158-0.002
		c-3.357,3.359-8.185,13.628-4.826,16.986C252.482,307.781,262.754,302.957,266.112,299.598z"/>
	<path style="fill:#FEDD3D;" d="M202.633,385.617c3.355-3.357,3.355-8.802,0-12.158c-3.357-3.357-8.802-3.357-12.158,0
		c-3.358,3.36-8.185,13.629-4.829,16.985C189.003,393.801,199.272,388.974,202.633,385.617z"/>
	<path style="fill:#FEDD3D;" d="M284.617,242.207c3.357-3.355,3.357-8.799,0-12.157c-3.357-3.357-8.802-3.357-12.157,0
		c-3.358,3.358-8.185,13.629-4.83,16.987C270.987,250.393,281.261,245.567,284.617,242.207z"/>
	<path style="fill:#FEDD3D;" d="M255.921,366.549c3.357-3.357,3.357-8.799-0.001-12.157c-3.354-3.355-8.799-3.358-12.157,0
		c-3.358,3.357-8.184,13.63-4.83,16.987C242.291,374.736,252.562,369.906,255.921,366.549z"/>
	<path style="fill:#FEDD3D;" d="M208.1,318.727c3.358-3.357,3.355-8.802-0.001-12.158c-3.358-3.357-8.802-3.357-12.157,0
		c-3.358,3.359-8.187,13.632-4.831,16.987C194.466,326.912,204.739,322.086,208.1,318.727z"/>
	<path style="fill:#FEDD3D;" d="M366.305,323.898c3.358-3.358,8.802-3.358,12.158,0.001c3.355,3.355,3.358,8.801,0,12.157
		c-3.357,3.357-13.629,8.184-16.986,4.829C358.119,337.525,362.948,327.254,366.305,323.898z"/>
	<path style="fill:#FEDD3D;" d="M421.115,313.69c3.357-3.355,8.8-3.355,12.158,0c3.355,3.359,3.355,8.803,0,12.16
		c-3.358,3.355-13.63,8.185-16.988,4.829C412.93,327.322,417.756,317.047,421.115,313.69z"/>
	<path style="fill:#FEDD3D;" d="M356.738,390.224c3.355-3.355,8.802-3.354,12.158,0c3.355,3.36,3.355,8.803,0,12.16
		c-3.357,3.355-13.628,8.184-16.986,4.826C348.555,403.854,353.381,393.583,356.738,390.224z"/>
	<path style="fill:#FEDD3D;" d="M270.719,453.705c3.359-3.357,8.803-3.357,12.161,0c3.357,3.357,3.357,8.802-0.002,12.158
		c-3.358,3.357-13.628,8.185-16.985,4.826C262.537,467.334,267.362,457.063,270.719,453.705z"/>
	<path style="fill:#FEDD3D;" d="M414.13,371.719c3.357-3.358,8.799-3.355,12.157,0.001c3.357,3.357,3.357,8.801,0,12.156
		c-3.358,3.359-13.63,8.185-16.986,4.83C405.945,385.349,410.771,375.077,414.13,371.719z"/>
	<path style="fill:#FEDD3D;" d="M289.787,400.416c3.358-3.358,8.802-3.358,12.157,0.001c3.358,3.355,3.359,8.801,0.001,12.157
		c-3.357,3.358-13.633,8.184-16.988,4.83C281.601,414.045,286.43,403.773,289.787,400.416z"/>
	<path style="fill:#FEDD3D;" d="M337.61,448.237c3.358-3.357,8.801-3.357,12.156,0.001c3.359,3.357,3.359,8.801,0,12.156
		c-3.355,3.359-13.628,8.189-16.985,4.831C329.422,461.868,334.252,451.595,337.61,448.237z"/>
</g>
<path style="fill:#1E252B;" d="M504.667,240.873c-0.515-0.617-11.252-13.352-26.814-21.757c3.937-17.243,1.441-33.712,1.316-34.506
	c-0.602-3.836-3.611-6.844-7.446-7.446c-0.793-0.125-17.26-2.619-34.505,1.316c-8.408-15.562-21.141-26.3-21.759-26.815
	c-2.98-2.489-7.225-2.765-10.506-0.69c-1.396,0.882-34.217,21.978-36.202,52.199c-0.019,0.278-0.017,0.561-0.029,0.84
	c-10.139-5.452-20.518-9.818-30.964-13.021c-4.888-29.936-22.491-56.638-50.067-75.699c-13.504-9.333-29.137-16.632-46.11-21.728
	c0.198-0.217,0.408-0.424,0.601-0.645c19.966-22.774,11.673-60.898,11.311-62.509c-0.852-3.787-4.052-6.591-7.92-6.94
	c-0.797-0.072-17.398-1.48-34.344,3.577C201.82,12.073,188.413,2.19,187.763,1.717c-3.139-2.29-7.394-2.289-10.531-0.001
	c-0.65,0.473-14.061,10.355-23.47,25.332c-16.95-5.059-33.548-3.651-34.345-3.577c-3.867,0.349-7.066,3.154-7.918,6.941
	c-0.362,1.612-8.656,39.736,11.311,62.507c0.18,0.206,0.377,0.401,0.561,0.603c-18.927,5.686-36.148,14.151-50.719,25.124
	c-30.2,22.741-46.832,54.703-46.832,89.997c-0.001,31.85,13.392,77.626,34.107,118.271c-3.178-0.23-5.512-0.266-6.611-0.266
	l-0.557,0.004c-3.874,0.08-7.277,2.646-8.396,6.356c-0.254,0.84-5.478,18.481-3.649,37.773
	c-18.203,6.648-31.879,18.955-32.528,19.546c-2.872,2.612-3.73,6.778-2.124,10.312c0.738,1.625,18.445,39.864,50.392,46.445
	c3.224,0.664,6.592,1.001,10.009,1.001c0.001,0-0.001,0,0,0c26.146,0,49.872-19.605,54.022-23.219
	c1.746-1.141,6.442-4.352,11.989-9.256c4.172,2.714,8.381,5.096,12.595,7.133c2.527,26.08,11.344,47.301,26.282,62.239
	c17.926,17.925,44.274,27.015,78.314,27.019h0.015c32.015,0,70.293-8.427,107.78-23.73c34.551-14.105,64.605-32.431,82.454-50.28
	c24.958-24.957,35.797-59.318,30.522-96.754c-2.545-18.062-8.735-36.226-18.098-53.628c0.273-0.013,0.549-0.008,0.822-0.027
	c30.222-1.986,51.314-34.806,52.197-36.203C507.432,248.099,507.152,243.853,504.667,240.873z M127.902,41.145
	c6.7,0.145,17.189,1.103,26.453,5.095c4.416,1.901,9.547-0.026,11.611-4.37c4.331-9.104,11.58-16.734,16.52-21.258
	c4.949,4.543,12.227,12.201,16.537,21.258c2.065,4.345,7.198,6.27,11.611,4.37c9.253-3.988,19.73-4.947,26.427-5.093
	c1.084,10.028,1.492,28.791-8.326,39.99c-2.44,2.783-5.613,5.177-9.436,7.145c-11.891-2.092-24.23-3.177-36.805-3.177
	c-12.622,0-24.963,1.078-36.834,3.16c-3.807-1.964-6.971-4.351-9.406-7.129C126.354,69.844,126.793,51.146,127.902,41.145z
	 M141.427,367.986c-1.687,23.414-30.801,41.965-31.082,42.143c-0.448,0.279-0.882,0.609-1.274,0.963
	c-0.211,0.192-21.4,19.114-42.609,19.114c-2.209,0-4.363-0.213-6.402-0.633c-16.702-3.441-28.969-20.888-34.484-30.298
	c5.879-4.329,15.985-10.764,27.229-13.527c4.669-1.147,7.595-5.782,6.623-10.491c-2.328-11.268-0.864-23.207,0.51-30.403
	c7.281,0.627,19.16,2.457,29.391,7.768c4.267,2.217,9.522,0.659,11.895-3.522c5.675-10.002,14.647-18.013,20.426-22.519
	C129.211,334.455,142.652,350.991,141.427,367.986z M128.252,308.159c-2.965-2.506-7.208-2.812-10.503-0.757
	c-0.745,0.466-16.305,10.288-27.647,25.996c-2.618-1.016-5.241-1.875-7.818-2.609c-23.147-41.023-38.587-89.745-38.586-122.146
	c0-29.972,13.731-56.151,39.709-75.713c25.646-19.312,60.835-29.946,99.087-29.946c36.073,0,69.822,9.596,95.031,27.019
	c21.502,14.863,35.518,34.198,41.07,56.448c-7.334-1.224-14.65-1.864-21.88-1.864c-30.447,0-57.547,11.007-78.372,31.831
	c-25.736,25.736-51.487,75.694-64.662,125.161C144.956,322.479,129.2,308.959,128.252,308.159z M452.729,343.731
	c4.538,32.202-4.266,60.423-25.459,81.616c-32.532,32.531-113.464,68.773-177.592,68.773h-0.014
	c-29.126-0.004-51.221-7.331-65.673-21.783c-31.354-31.355-22.147-90.519-13.869-122.996c11.97-46.959,36.997-96.419,60.861-120.281
	c17.398-17.4,40.127-26.596,65.729-26.596c36.288,0,75.334,18.233,107.126,50.026C430.887,279.539,448.251,311.942,452.729,343.731z
	 M451.988,269.742c-3.682,0.242-7.608-0.31-11.693-1.614c-6.923-9.866-14.886-19.356-23.811-28.281
	c-8.934-8.934-18.422-16.893-28.278-23.804c-1.306-4.086-1.856-8.014-1.614-11.699c0.982-14.981,14.515-27.894,22.373-34.182
	c4.636,4.841,11.375,12.933,15.104,22.307c1.775,4.466,6.763,6.729,11.299,5.121c9.506-3.377,20.034-3.646,26.723-3.35
	c0.294,6.694,0.026,17.222-3.349,26.725c-1.61,4.532,0.653,9.524,5.122,11.3c9.363,3.723,17.448,10.453,22.287,15.084
	C479.826,255.208,466.847,268.764,451.988,269.742z"/>
<g>
</g>
<g>
</g>
<g>
</g>
<g>
</g>
<g>
</g>
<g>
</g>
<g>
</g>
<g>
</g>
<g>
</g>
<g>
</g>
<g>
</g>
<g>
</g>
<g>
</g>
<g>
</g>
<g>
</g>
</svg>
