<?xml version="1.0" encoding="iso-8859-1"?>
<!-- Generator: Adobe Illustrator 19.0.0, SVG Export Plug-In . SVG Version: 6.00 Build 0)  -->
<svg version="1.1" id="Layer_1" xmlns="http://www.w3.org/2000/svg" xmlns:xlink="http://www.w3.org/1999/xlink" x="0px" y="0px"
	 viewBox="0 0 511.998 511.998" style="enable-background:new 0 0 511.998 511.998;" xml:space="preserve">
<path style="fill:#78A840;" d="M467.958,131.754l-207.421,59.904L44.043,131.754H7.508c0,66.374,25.848,128.776,72.782,175.71
	S189.626,380.245,256,380.245s128.776-25.848,175.71-72.782c46.933-46.934,72.781-109.336,72.781-175.71L467.958,131.754
	L467.958,131.754z"/>
<path style="fill:#EF495B;" d="M467.957,131.754c0,117.06-94.896,211.957-211.957,211.957S44.043,248.815,44.043,131.754H467.957z"
	/>
<path style="opacity:0.1;enable-background:new    ;" d="M140.357,307.464c-46.934-46.934-72.782-109.336-72.782-175.71H7.508
	c0,66.374,25.848,128.776,72.782,175.71S189.626,380.245,256,380.245c10.117,0,20.142-0.609,30.034-1.793
	C231.03,371.868,180.137,347.243,140.357,307.464z"/>
<path d="M504.492,124.245h-36.535H117.907c-4.147,0-7.508,3.362-7.508,7.508c0,4.147,3.362,7.508,7.508,7.508h342.405
	c-1.369,37.779-13.056,74.152-34.006,105.625c-2.298,3.452-1.363,8.113,2.089,10.411c3.413,2.272,8.141,1.319,10.411-2.089
	c22.597-33.946,35.152-73.195,36.527-113.947h21.535c-1.872,61.552-26.728,119.151-70.468,162.893
	c-45.516,45.516-106.032,70.582-170.401,70.582c-32.237,0-63.467-6.21-92.823-18.457c-3.827-1.596-8.224,0.211-9.821,4.039
	c-1.597,3.827,0.211,8.224,4.039,9.821c31.198,13.015,64.373,19.614,98.606,19.614c68.38,0,132.668-26.629,181.019-74.981
	c48.352-48.353,74.98-112.64,74.98-181.019C512,127.607,508.638,124.245,504.492,124.245z"/>
<path d="M0,131.754c0,68.38,26.629,132.667,74.98,181.019c16.01,16.01,33.987,29.813,53.433,41.027
	c3.488,2.011,8.192,0.825,10.255-2.753c2.071-3.592,0.839-8.183-2.753-10.255c-18.308-10.558-35.237-23.557-50.316-38.637
	c-43.74-43.741-68.596-101.34-70.468-162.893h21.544c1.864,55.806,24.462,108.001,64.139,147.677
	c41.451,41.451,96.564,64.28,155.185,64.28c62.366,0,122.005-26.688,163.623-73.221c2.764-3.09,2.5-7.838-0.591-10.602
	c-3.09-2.763-7.838-2.501-10.602,0.591c-38.773,43.352-94.332,68.215-152.43,68.215c-110.222,0-200.352-87.668-204.312-196.94
	h36.187c4.147,0,7.508-3.362,7.508-7.508c0-4.147-3.362-7.508-7.508-7.508H44.043H7.508C3.362,124.245,0,127.607,0,131.754z"/>
<path d="M260.536,292.833c0-8.35-4.037-15.377-9.542-17.556c-5.506,2.178-9.542,9.205-9.542,17.556
	c0,8.351,4.037,15.377,9.542,17.556C256.501,308.21,260.536,301.184,260.536,292.833z"/>
<path d="M202.506,285.623c4.204-7.215,4.254-15.318,0.594-19.972c-5.854-0.89-12.878,3.15-17.083,10.365
	c-4.204,7.215-4.254,15.318-0.594,19.972C191.276,296.878,198.301,292.839,202.506,285.623z"/>
<path d="M147.054,250.493c7.191-4.246,11.19-11.294,10.266-17.143c-4.675-3.633-12.778-3.536-19.968,0.71
	c-7.191,4.246-11.189,11.294-10.265,17.143C131.761,254.837,139.864,254.74,147.054,250.493z"/>
<path d="M111.235,174.784c-8.251,1.287-14.571,6.359-15.875,12.135c3.001,5.104,10.566,8.009,18.817,6.721
	c8.251-1.287,14.571-6.359,15.875-12.135C127.051,176.401,119.486,173.495,111.235,174.784z"/>
<path d="M316.566,295.989c3.66-4.654,3.61-12.757-0.594-19.972c-4.204-7.215-11.23-11.255-17.083-10.365
	c-3.66,4.654-3.61,12.757,0.594,19.972C303.687,292.839,310.712,296.878,316.566,295.989z"/>
<path d="M364.638,234.06c-7.191-4.246-15.293-4.343-19.968-0.71c-0.923,5.849,3.074,12.897,10.266,17.143s15.293,4.343,19.968,0.71
	C375.827,245.354,371.829,238.306,364.638,234.06z"/>
<path d="M387.811,193.639c8.251,1.287,15.816-1.617,18.817-6.721c-1.303-5.775-7.624-10.847-15.875-12.135
	c-8.251-1.287-15.816,1.617-18.817,6.721C373.24,187.28,379.561,192.352,387.811,193.639z"/>
<g>
</g>
<g>
</g>
<g>
</g>
<g>
</g>
<g>
</g>
<g>
</g>
<g>
</g>
<g>
</g>
<g>
</g>
<g>
</g>
<g>
</g>
<g>
</g>
<g>
</g>
<g>
</g>
<g>
</g>
</svg>
