<?xml version="1.0" encoding="iso-8859-1"?>
<!-- Generator: Adobe Illustrator 19.0.0, SVG Export Plug-In . SVG Version: 6.00 Build 0)  -->
<svg version="1.1" id="Layer_1" xmlns="http://www.w3.org/2000/svg" xmlns:xlink="http://www.w3.org/1999/xlink" x="0px" y="0px"
	 viewBox="0 0 512 512" style="enable-background:new 0 0 512 512;" xml:space="preserve">
<path style="fill:#945C2B;" d="M437.517,296.53c-0.016-0.291-0.045-0.579-0.069-0.866c-0.019-0.223-0.031-0.451-0.056-0.672
	c-0.042-0.398-0.1-0.796-0.16-1.194c-0.015-0.104-0.027-0.212-0.044-0.318c-0.074-0.468-0.163-0.937-0.261-1.405
	c-0.005-0.027-0.01-0.055-0.017-0.084c-0.424-2.007-1.059-3.993-1.889-5.953c-10.64-48.21-54.212-223.581-120.995-202.29
	c0,0-24.656,10.088-56.034,10.088h-4.482c-31.377,0-56.032-10.088-56.032-10.088c-66.785-21.29-110.357,154.08-120.996,202.291
	c-0.831,1.958-1.465,3.945-1.89,5.953c-0.006,0.029-0.011,0.057-0.017,0.084c-0.097,0.468-0.187,0.937-0.261,1.405
	c-0.017,0.106-0.028,0.215-0.044,0.318c-0.059,0.398-0.116,0.796-0.159,1.194c-0.024,0.221-0.037,0.449-0.056,0.672
	c-0.023,0.287-0.053,0.575-0.069,0.866c-0.028,0.52-0.044,1.043-0.044,1.567c0,39.836,81.4,72.133,181.81,72.133
	s181.809-32.296,181.809-72.133C437.56,297.572,437.545,297.05,437.517,296.53z"/>
<path style="fill:#874E23;" d="M101.039,312.215c0-0.561,0.017-1.117,0.046-1.673c0.019-0.311,0.051-0.618,0.073-0.923
	c0.022-0.239,0.033-0.481,0.061-0.717c0.044-0.426,0.106-0.85,0.168-1.275c0.017-0.111,0.029-0.228,0.049-0.34
	c0.079-0.498,0.175-1,0.278-1.499c0.006-0.029,0.011-0.059,0.018-0.091c0.454-2.142,1.13-4.262,2.017-6.353
	c9.968-45.169,47.026-194.923,104.152-215.446c-2.918-0.979-4.535-1.64-4.535-1.64C136.583,60.97,93.011,236.341,82.373,284.551
	c-0.831,1.958-1.465,3.945-1.891,5.953c-0.006,0.029-0.011,0.057-0.017,0.084c-0.097,0.468-0.185,0.937-0.261,1.405
	c-0.017,0.106-0.027,0.215-0.044,0.318c-0.059,0.398-0.115,0.796-0.157,1.194c-0.025,0.221-0.038,0.449-0.057,0.672
	c-0.023,0.287-0.053,0.575-0.069,0.866c-0.027,0.52-0.044,1.043-0.044,1.567c0,15.133,11.755,29.174,31.828,40.774
	C104.783,329.496,101.039,321.03,101.039,312.215z"/>
<path style="fill:#A56637;" d="M446.032,296.872c-0.019-0.223-0.031-0.451-0.055-0.672c-0.042-0.398-0.101-0.796-0.16-1.194
	c-0.015-0.104-0.027-0.212-0.044-0.318c-0.073-0.468-0.162-0.937-0.261-1.405c-0.004-0.027-0.009-0.055-0.017-0.084
	c-0.424-2.007-1.059-3.993-1.889-5.953c-10.64-48.21-54.212-223.581-120.995-202.29c0,0-24.655,10.089-56.033,10.089h-0.174
	c-24.357,38.569-38.464,84.257-38.464,133.243c0,53.215,16.646,102.535,44.999,143.065c96.414-1.781,173.207-33.358,173.207-72.051
	c0-0.524-0.015-1.047-0.044-1.567C446.087,297.447,446.058,297.158,446.032,296.872z"/>
<path style="fill:#77411D;" d="M96.041,406.116c43.119,14.92,98.851,23.916,159.709,23.916c136.78,0,247.664-45.432,247.664-101.474
	c0-28.676-29.038-54.567-75.712-73.019c3.211,12.428,5.664,23.004,7.318,30.499c0.83,1.958,1.465,3.945,1.889,5.953
	c0.008,0.029,0.012,0.057,0.017,0.084c0.098,0.468,0.187,0.937,0.261,1.405c0.017,0.106,0.029,0.215,0.044,0.318
	c0.059,0.398,0.116,0.796,0.16,1.194c0.024,0.221,0.037,0.449,0.056,0.672c0.024,0.287,0.054,0.575,0.069,0.866
	c0.028,0.52,0.043,1.043,0.043,1.567c0,39.836-81.399,72.133-181.809,72.133S73.94,337.933,73.94,298.098
	c0-0.524,0.016-1.047,0.044-1.567c0.017-0.291,0.046-0.579,0.069-0.866c0.019-0.223,0.031-0.451,0.056-0.672
	c0.042-0.398,0.1-0.796,0.159-1.194c0.016-0.104,0.027-0.212,0.044-0.318c0.074-0.468,0.164-0.937,0.261-1.405
	c0.006-0.027,0.011-0.055,0.017-0.084c0.425-2.007,1.059-3.993,1.89-5.953c1.654-7.496,4.106-18.071,7.317-30.499
	c-46.673,18.452-75.71,44.343-75.71,73.019c0,26.077,24.006,49.853,63.457,67.827"/>
<path style="fill:#874F26;" d="M436.289,256.748c3.211,12.428,5.664,23.004,7.317,30.499c0.83,1.958,1.465,3.945,1.889,5.953
	c0.009,0.029,0.013,0.057,0.017,0.084c0.099,0.468,0.188,0.937,0.261,1.405c0.017,0.106,0.029,0.215,0.044,0.318
	c0.059,0.398,0.118,0.796,0.16,1.194c0.023,0.221,0.036,0.449,0.055,0.672c0.025,0.287,0.055,0.575,0.069,0.866
	c0.029,0.52,0.044,1.043,0.044,1.567c0,38.693-76.793,70.268-173.207,72.051c15.107,21.595,33.536,40.695,54.553,56.55
	C433.679,416.465,512,376.865,512,329.767C512,301.091,482.962,275.2,436.289,256.748z"/>
<path style="fill:#F7941C;" d="M349.898,299.632c-27.46,6.609-59.683,10.415-94.147,10.415c-80.972,0-149.569-21.005-173.098-50.026
	c-2.654,10.491-4.72,19.44-6.171,26.018c-0.831,1.958-1.465,3.945-1.89,5.953c-0.006,0.029-0.011,0.057-0.017,0.084
	c-0.097,0.468-0.187,0.937-0.261,1.405c-0.017,0.106-0.028,0.215-0.044,0.318c-0.059,0.398-0.116,0.796-0.159,1.194
	c-0.024,0.221-0.037,0.449-0.056,0.672c-0.023,0.287-0.053,0.575-0.069,0.866c-0.028,0.52-0.044,1.043-0.044,1.567
	c0,39.836,81.4,72.133,181.81,72.133s181.809-32.296,181.809-72.133c0-0.524-0.015-1.047-0.043-1.567
	c-0.016-0.291-0.045-0.579-0.069-0.866c-0.019-0.223-0.031-0.451-0.056-0.672c-0.042-0.398-0.1-0.796-0.16-1.194
	c-0.015-0.104-0.027-0.212-0.044-0.318c-0.074-0.468-0.163-0.937-0.261-1.405c-0.005-0.027-0.01-0.055-0.017-0.084
	c-0.424-2.007-1.059-3.993-1.889-5.953c-1.451-6.578-3.519-15.526-6.174-26.018c-10.12,12.483-28.581,23.483-52.776,31.966"/>
<path style="fill:#ED7626;" d="M79.921,298.795c0.03,0.404,0.069,0.808,0.116,1.21c0.02,0.176,0.04,0.35,0.064,0.526
	c0.065,0.478,0.14,0.955,0.229,1.43c0.015,0.079,0.025,0.157,0.04,0.235c0.106,0.542,0.228,1.083,0.363,1.622
	c0.043,0.173,0.092,0.345,0.138,0.518c0.102,0.381,0.21,0.758,0.328,1.137c0.06,0.193,0.12,0.385,0.183,0.578
	c0.132,0.4,0.274,0.798,0.423,1.196c0.054,0.146,0.102,0.289,0.157,0.434c0.201,0.514,0.415,1.024,0.642,1.535
	c0.086,0.195,0.18,0.387,0.271,0.581c0.156,0.335,0.316,0.671,0.484,1.004c0.112,0.222,0.225,0.444,0.342,0.665
	c0.169,0.32,0.346,0.641,0.526,0.961c0.116,0.207,0.231,0.416,0.353,0.623c0.278,0.473,0.569,0.948,0.872,1.418
	c0.152,0.235,0.312,0.469,0.468,0.702c0.182,0.272,0.366,0.543,0.555,0.814c0.181,0.258,0.367,0.517,0.555,0.774
	c0.179,0.245,0.363,0.488,0.549,0.732c0.201,0.263,0.399,0.527,0.607,0.789c0.195,0.246,0.399,0.49,0.602,0.734
	c0.393,0.478,0.797,0.953,1.215,1.426c0.169,0.194,0.339,0.386,0.514,0.579c0.269,0.297,0.543,0.592,0.823,0.886
	c0.163,0.174,0.33,0.346,0.496,0.52c0.301,0.311,0.602,0.62,0.912,0.928c0.064,0.063,0.129,0.125,0.193,0.188
	c0.705,0.694,1.437,1.382,2.196,2.066c0.106,0.095,0.208,0.191,0.314,0.286c0.374,0.333,0.756,0.664,1.142,0.994
	c0.129,0.111,0.26,0.222,0.391,0.333c1.789,1.512,3.707,2.996,5.748,4.449c0.091,0.065,0.183,0.129,0.275,0.195
	c2.101,1.485,4.332,2.939,6.684,4.355c0.066,0.04,0.132,0.08,0.198,0.119c0.583,0.35,1.172,0.699,1.771,1.044
	c-6.875-7.887-10.619-16.352-10.619-25.167c0-0.561,0.017-1.117,0.046-1.673c0.019-0.311,0.051-0.618,0.073-0.923
	c0.022-0.239,0.033-0.481,0.061-0.717c0.044-0.426,0.106-0.85,0.168-1.275c0.017-0.111,0.029-0.228,0.049-0.34
	c0.079-0.498,0.175-1,0.278-1.499c0.006-0.029,0.011-0.059,0.018-0.091c0.454-2.142,1.13-4.262,2.017-6.353
	c1.352-6.123,3.205-14.178,5.533-23.56c-8.729-5.31-15.751-11.101-20.739-17.254c-0.004,0.015-0.008,0.028-0.012,0.043
	c-0.322,1.275-0.635,2.526-0.94,3.753c-0.01,0.037-0.019,0.072-0.027,0.11c-0.619,2.492-1.201,4.883-1.748,7.162
	c-0.011,0.046-0.022,0.092-0.032,0.138c-0.254,1.065-0.503,2.105-0.741,3.119c-0.032,0.135-0.063,0.267-0.095,0.401
	c-0.218,0.925-0.428,1.828-0.633,2.708c-0.037,0.163-0.074,0.325-0.112,0.485c-0.197,0.854-0.387,1.687-0.573,2.494
	c-0.032,0.146-0.065,0.292-0.099,0.435c-0.185,0.818-0.364,1.611-0.537,2.379c-0.025,0.111-0.051,0.224-0.074,0.333
	c-0.191,0.851-0.374,1.675-0.547,2.459c-0.831,1.958-1.465,3.945-1.891,5.953c-0.006,0.029-0.011,0.057-0.017,0.084
	c-0.097,0.468-0.185,0.937-0.261,1.405c-0.017,0.106-0.027,0.215-0.044,0.318c-0.059,0.398-0.115,0.796-0.157,1.194
	c-0.025,0.221-0.038,0.449-0.057,0.672c-0.023,0.287-0.053,0.575-0.069,0.866c-0.027,0.52-0.044,1.043-0.044,1.567
	c0,0.562,0.023,1.12,0.055,1.679C79.894,298.459,79.909,298.627,79.921,298.795z"/>
<path style="fill:#F9C33D;" d="M442.797,293.637c-0.019-0.223-0.031-0.451-0.055-0.672c-0.042-0.398-0.101-0.796-0.16-1.194
	c-0.015-0.104-0.027-0.212-0.044-0.318c-0.073-0.468-0.162-0.937-0.261-1.405c-0.004-0.027-0.009-0.055-0.017-0.084
	c-0.424-2.007-1.059-3.993-1.889-5.953c-1.451-6.578-3.518-15.527-6.174-26.018c-10.12,12.483-28.581,23.483-52.776,31.966
	l-26.173,7.646c-27.46,6.609-59.683,10.415-94.146,10.415c-7.608,0-15.106-0.185-22.467-0.546
	c7.594,21.742,18.104,42.113,31.069,60.645c96.414-1.781,173.207-33.358,173.207-72.051c0-0.524-0.015-1.047-0.044-1.567
	C442.852,294.212,442.823,293.923,442.797,293.637z"/>
<path style="fill:#231F20;" d="M434.522,249.579c-6.656-25.333-16.033-56.536-28.032-85.705
	c-24.563-59.716-51.922-89.996-81.314-89.996c-4.52,0-9.099,0.729-13.608,2.166c-0.204,0.066-0.407,0.139-0.606,0.22
	c-0.233,0.095-23.524,9.486-52.971,9.486h-4.482c-29.275,0-52.745-9.396-52.968-9.486c-0.201-0.081-0.402-0.155-0.607-0.22
	c-4.509-1.437-9.087-2.166-13.608-2.166c-29.396,0-56.756,30.278-81.318,89.995c-11.997,29.167-21.374,60.372-28.029,85.706
	C27.301,270.057,0,298.008,0,328.559c0,28.45,24.218,55.153,68.191,75.188c4.063,1.85,8.862,0.057,10.714-4.007
	c1.852-4.065,0.058-8.861-4.007-10.714c-37.868-17.253-58.722-38.727-58.722-60.467c0-21.128,20.13-42.245,55.823-59.114
	c-0.655,2.741-1.262,5.339-1.826,7.798c-0.014,0.061-0.028,0.123-0.042,0.183c-0.194,0.848-0.383,1.675-0.566,2.486
	c-0.068,0.297-0.135,0.595-0.199,0.883c-0.051,0.226-0.101,0.451-0.152,0.675c-0.166,0.742-0.328,1.461-0.477,2.134
	c-0.368,0.912-0.692,1.832-0.99,2.753c-0.425,1.313-0.786,2.629-1.062,3.932c0,0.001,0,0.003-0.001,0.004
	c0,0.002-0.001,0.003-0.001,0.005c-0.003,0.014-0.006,0.033-0.011,0.051c-0.006,0.033-0.013,0.065-0.02,0.099
	c-0.057,0.28-0.104,0.562-0.156,0.842c-0.057,0.305-0.121,0.61-0.169,0.914c-0.022,0.133-0.04,0.269-0.058,0.41
	c-0.075,0.51-0.148,1.019-0.198,1.499c-0.026,0.236-0.045,0.474-0.064,0.715l-0.033,0.41c-0.024,0.274-0.047,0.55-0.066,0.853
	c-0.036,0.666-0.056,1.336-0.056,2.008c0,2.138,0.182,4.258,0.543,6.358c3.491,20.296,23.71,38.633,57.813,52.163
	c35.266,13.993,81.981,21.698,131.541,21.698s96.274-7.706,131.541-21.698c34.103-13.53,54.321-31.868,57.812-52.163
	c0.361-2.1,0.543-4.221,0.543-6.358c0-0.672-0.019-1.341-0.055-2.006c-0.017-0.306-0.043-0.611-0.069-0.917l-0.029-0.348
	c-0.018-0.24-0.037-0.479-0.06-0.685c-0.054-0.51-0.125-1.019-0.201-1.522c-0.018-0.138-0.037-0.278-0.059-0.417
	c-0.092-0.57-0.199-1.144-0.317-1.716c-0.011-0.054-0.023-0.11-0.033-0.165c-0.119-0.56-0.25-1.12-0.395-1.681
	c-0.436-1.682-0.992-3.369-1.663-5.036c-0.921-4.153-2.01-8.917-3.263-14.161c35.694,16.87,55.823,37.986,55.823,59.114
	c0,23.262-24.609,46.688-67.517,64.268c-45.828,18.777-106.932,29.118-172.059,29.118c-57.542,0-113.324-8.335-157.065-23.472
	c-4.221-1.464-8.829,0.777-10.288,4.999c-1.46,4.221,0.778,8.827,4.999,10.288c45.399,15.708,103.057,24.36,162.355,24.36
	c143.412,0,255.751-48.125,255.751-109.561C511.502,298.008,484.2,270.057,434.522,249.579z M381.325,341.585
	c-33.413,13.256-78.01,20.557-125.575,20.557s-92.163-7.302-125.576-20.557c-30.597-12.14-48.146-27.99-48.146-43.487
	c0-0.377,0.012-0.752,0.03-1.1l0.094-1.154c0.03-0.287,0.074-0.573,0.112-0.822l0.036-0.264c0.055-0.346,0.122-0.696,0.194-1.042
	c0.006-0.031,0.014-0.065,0.02-0.096c0.078-0.363,0.165-0.73,0.263-1.097c0.031-0.116,0.07-0.234,0.102-0.352
	c0.28-0.988,0.627-1.983,1.047-2.975c0.194-0.457,0.345-0.931,0.453-1.416c0.414-1.88,0.841-3.777,1.278-5.687
	c0.033-0.148,0.068-0.297,0.101-0.444c0.015-0.067,0.031-0.136,0.046-0.203c0.394-1.719,0.797-3.45,1.207-5.189
	c0.042-0.179,0.085-0.359,0.127-0.539c31.803,25.768,96.497,42.416,168.611,42.416c33.909,0,67.119-3.679,96.04-10.639
	c4.343-1.046,7.016-5.413,5.971-9.756c-1.045-4.344-5.411-7.017-9.756-5.971c-27.7,6.668-59.601,10.19-92.255,10.19
	c-73.038,0-139.406-17.973-164.204-44.074c0.028-0.109,0.055-0.215,0.083-0.324c0.023-0.09,0.03-0.179,0.05-0.268
	c21.411-82.866,56.341-167.241,94.648-167.241c2.766,0,5.601,0.443,8.432,1.32c3.3,1.304,27.797,10.553,58.75,10.553h4.482
	c30.954,0,55.454-9.249,58.752-10.553c2.831-0.877,5.666-1.32,8.432-1.32c38.302,0,73.231,84.37,94.644,167.233
	c0.021,0.092,0.027,0.185,0.051,0.277c0.027,0.102,0.052,0.203,0.079,0.305c-9.507,9.988-25.474,19.097-46.555,26.486
	c-4.214,1.478-6.435,6.093-4.957,10.309c1.478,4.214,6.091,6.429,10.309,4.957c18.907-6.628,34.385-14.756,45.619-23.887
	c0.047,0.199,0.095,0.4,0.141,0.597c0.391,1.663,0.776,3.317,1.154,4.96c0.069,0.301,0.138,0.604,0.205,0.896
	c0.429,1.88,0.85,3.747,1.256,5.595c0.108,0.483,0.258,0.956,0.451,1.413c0.631,1.489,1.107,2.982,1.416,4.435
	c0.003,0.016,0.006,0.032,0.01,0.049c0.003,0.018,0.008,0.038,0.011,0.056c0.071,0.34,0.137,0.683,0.188,1.004l0.033,0.247
	c0.042,0.287,0.086,0.573,0.118,0.873l0.063,0.757c0.005,0.063,0.01,0.126,0.015,0.19c0.004,0.056,0.011,0.111,0.013,0.168
	c0.022,0.373,0.031,0.747,0.031,1.125C429.472,313.595,411.923,329.444,381.325,341.585z"/>
<g>
</g>
<g>
</g>
<g>
</g>
<g>
</g>
<g>
</g>
<g>
</g>
<g>
</g>
<g>
</g>
<g>
</g>
<g>
</g>
<g>
</g>
<g>
</g>
<g>
</g>
<g>
</g>
<g>
</g>
</svg>
